HIERARCHY
ROOT Hips
{
    OFFSET 0.000000 0.000000 0.000000
    CHANNELS 6 Xposition Yposition Zposition Zrotation Xrotation Yrotation
    JOINT Spine
    {
        OFFSET -0.000000 8.505030 0.000000
        CHANNELS 3 Zrotation Xrotation Yrotation
        JOINT Spine1
        {
            OFFSET -0.000000 25.070629 0.000000
            CHANNELS 3 Zrotation Xrotation Yrotation
            JOINT Neck
            {
                OFFSET -0.000000 24.967667 2.269788
                CHANNELS 3 Zrotation Xrotation Yrotation
                JOINT Head
                {
                    OFFSET -0.000000 14.520781 -2.074397
                    CHANNELS 3 Zrotation Xrotation Yrotation
                    End Site
                    {
                        OFFSET -0.000000 25.929966 0.000000
                    }
                }
            }
            JOINT LeftShoulder
            {
                OFFSET 4.117346 22.983784 -0.389865
                CHANNELS 3 Zrotation Xrotation Yrotation
                JOINT LeftArm
                {
                    OFFSET 11.957758 0.000000 0.000000
                    CHANNELS 3 Zrotation Xrotation Yrotation
                    JOINT LeftForeArm
                    {
                        OFFSET 31.907600 0.000000 0.000000
                        CHANNELS 3 Zrotation Xrotation Yrotation
                        JOINT LeftHand
                        {
                            OFFSET 28.601147 0.000000 0.000000
                            CHANNELS 3 Zrotation Xrotation Yrotation
                            End Site
                            {
                                OFFSET 15.557981 0.000000 0.000000
                            }
                        }
                    }
                }
            }
            JOINT RightShoulder
            {
                OFFSET -4.061940 22.983784 -0.389865
                CHANNELS 3 Zrotation Xrotation Yrotation
                JOINT RightArm
                {
                    OFFSET -11.957758 0.000000 0.000000
                    CHANNELS 3 Zrotation Xrotation Yrotation
                    JOINT RightForeArm
                    {
                        OFFSET -31.907600 0.000000 0.000000
                        CHANNELS 3 Zrotation Xrotation Yrotation
                        JOINT RightHand
                        {
                            OFFSET -28.601147 0.000000 0.000000
                            CHANNELS 3 Zrotation Xrotation Yrotation
                            End Site
                            {
                                OFFSET -15.557981 0.000000 0.000000
                            }
                        }
                    }
                }
            }
        }
    }
    JOINT LeftUpLeg
    {
        OFFSET 10.371986 0.000000 0.000000
        CHANNELS 3 Zrotation Xrotation Yrotation
        JOINT LeftLeg
        {
            OFFSET -0.000000 -42.486427 0.000000
            CHANNELS 3 Zrotation Xrotation Yrotation
            JOINT LeftFoot
            {
                OFFSET -0.000000 -48.322342 0.000000
                CHANNELS 3 Zrotation Xrotation Yrotation
                JOINT LeftToeBase
                {
                    OFFSET -0.000000 -6.741791 15.557981
                    CHANNELS 3 Zrotation Xrotation Yrotation
                    End Site
                    {
                        OFFSET -0.000000 0.000000 4.148795
                    }
                }
            }
        }
    }
    JOINT RightUpLeg
    {
        OFFSET -10.371986 0.000000 0.000000
        CHANNELS 3 Zrotation Xrotation Yrotation
        JOINT RightLeg
        {
            OFFSET -0.000000 -42.486427 0.000000
            CHANNELS 3 Zrotation Xrotation Yrotation
            JOINT RightFoot
            {
                OFFSET -0.000000 -48.322342 0.000000
                CHANNELS 3 Zrotation Xrotation Yrotation
                JOINT RightToeBase
                {
                    OFFSET -0.000000 -6.741791 15.557981
                    CHANNELS 3 Zrotation Xrotation Yrotation
                    End Site
                    {
                        OFFSET -0.000000 0.000000 4.148795
                    }
                }
            }
        }
    }
}
MOTION
Frames:    10
Frame Time:    0.008333
15.862653    99.290451    42.556839    0.412106    -1.229226    89.744354    -0.658604    -6.889664    0.940626    3.316497    -2.656446    1.057181    -3.166417    32.813896    -3.645115    2.927563    4.737058    -4.018591    15.433696    1.030827    -12.305529    -5.602197    2.127518    -8.651749    2.347904    -7.792809    20.468645    2.937876    -8.338619    -4.961163    -15.848405    1.915241    -8.936375    6.814379    2.783339    25.518536    1.924349    -0.307839    -15.473185    1.340809    -0.071166    -1.994783    4.383924    4.741504    3.022830    -1.120332    5.644498    7.551761    -7.168180    -5.716129    8.195652    0.000000    0.000000    0.000000    -4.168174    2.965928    -0.075558    2.541708    6.444477    -4.156750    6.578409    -4.392745    -15.705921    0.000000    0.000000    0.000000    
15.867479    99.289200    42.553539    0.412217    -1.232793    89.734711    -0.667318    -6.890470    0.934390    3.334514    -2.657856    1.051905    -3.189243    32.805576    -3.640768    2.943988    4.750915    -4.016243    15.415371    1.028419    -12.301648    -5.624163    2.229217    -8.647177    2.377379    -7.829422    20.461338    3.029211    -8.383541    -4.935149    -15.854361    1.912119    -8.918067    6.821026    2.820405    25.501499    1.871904    -0.378182    -15.422313    1.393190    -0.149925    -2.077867    4.385351    4.743835    3.055357    -1.115756    5.650110    7.568364    -7.176942    -5.723912    8.152308    0.000000    0.000000    0.000000    -4.166625    2.947535    -0.033512    2.543246    6.482474    -4.201938    6.569632    -4.408375    -15.676130    0.000000    0.000000    0.000000    
15.874669    99.288315    42.549240    0.417830    -1.235201    89.728745    -0.679813    -6.892533    0.935231    3.353165    -2.653289    1.053863    -3.215274    32.779694    -3.672568    2.966045    4.824886    -4.052443    15.413354    1.032749    -12.320577    -5.652297    2.279477    -8.643217    2.401743    -7.860552    20.468874    3.095018    -8.422567    -4.957928    -15.859682    1.935669    -8.937985    6.844138    2.791584    25.513002    1.848193    -0.356045    -15.405972    1.509406    -0.133037    -2.054258    4.388607    4.754054    3.061903    -1.119875    5.657209    7.547652    -7.193777    -5.740312    8.159216    0.000000    0.000000    0.000000    -4.163770    2.937347    -0.031300    2.540803    6.511595    -4.202393    6.556057    -4.416064    -15.689015    0.000000    0.000000    0.000000    
15.877933    99.287415    42.544807    0.415666    -1.231787    89.721336    -0.696542    -6.902454    0.938213    3.364233    -2.639174    1.057785    -3.199236    32.749966    -3.689508    2.972502    4.856912    -4.066634    15.425894    1.031086    -12.322520    -5.701137    2.345043    -8.660972    2.470092    -7.911627    20.481598    3.081930    -8.485455    -4.956393    -15.859052    1.927228    -8.933645    6.861389    2.798941    25.475657    1.825998    -0.419422    -15.370666    1.509298    -0.199468    -2.013587    4.384998    4.749573    3.065994    -1.124193    5.665753    7.565722    -7.198452    -5.743753    8.146456    0.000000    0.000000    0.000000    -4.169548    2.919866    -0.019320    2.544963    6.541165    -4.184232    6.545574    -4.429985    -15.722837    0.000000    0.000000    0.000000    
15.883121    99.287300    42.542267    0.410935    -1.231592    89.711304    -0.693949    -6.907028    0.940487    3.336056    -2.647408    1.059536    -3.136495    32.762470    -3.703428    2.944290    4.838192    -4.073583    15.519581    0.951267    -12.315700    -5.834783    2.388015    -8.691302    2.533572    -7.935002    20.520679    3.072683    -8.521075    -4.972899    -15.826432    1.923702    -8.927217    6.865858    2.814317    25.450590    1.835206    -0.428458    -15.374079    1.491560    -0.204752    -1.846884    4.382656    4.746491    3.074148    -1.123603    5.669806    7.588074    -7.209797    -5.738935    8.122727    0.000000    0.000000    0.000000    -4.171758    2.902151    0.005409    2.546767    6.567702    -4.212326    6.560444    -4.437851    -15.706099    0.000000    0.000000    0.000000    
15.888786    99.286964    42.539894    0.408451    -1.230300    89.710938    -0.702615    -6.916405    0.937916    3.338292    -2.646133    1.057511    -3.145674    32.771584    -3.707851    2.974751    4.835695    -4.076875    15.513765    0.957407    -12.332821    -5.848258    2.383116    -8.687721    2.578648    -7.973072    20.530312    2.963951    -8.562587    -4.968224    -15.817019    1.927890    -8.927616    6.876890    2.820899    25.440922    1.810586    -0.485984    -15.358278    1.525477    -0.265952    -1.801341    4.380192    4.750125    3.059067    -1.121194    5.666552    7.578185    -7.212356    -5.745049    8.139845    0.000000    0.000000    0.000000    -4.166990    2.886861    -0.017470    2.533009    6.597283    -4.223537    6.560992    -4.446023    -15.677167    0.000000    0.000000    0.000000    
15.892982    99.285812    42.538624    0.409454    -1.230283    89.708878    -0.721461    -6.910858    0.933562    3.362667    -2.664270    1.055361    -3.166289    32.776928    -3.707194    2.995202    4.855348    -4.078196    15.493625    0.979678    -12.348950    -5.853642    2.377780    -8.680960    2.602511    -8.011577    20.548958    2.882123    -8.604266    -5.050073    -15.818494    1.938777    -8.908887    6.882354    2.811451    25.416077    1.813728    -0.616134    -15.353269    1.369037    -0.392095    -1.691764    4.383245    4.748917    3.049779    -1.128907    5.674292    7.564331    -7.209758    -5.756097    8.163629    0.000000    0.000000    0.000000    -4.170972    2.878565    -0.007839    2.542556    6.616257    -4.209815    6.544017    -4.454467    -15.701035    0.000000    0.000000    0.000000    
15.896427    99.284737    42.535839    0.397601    -1.224628    89.706573    -0.733376    -6.918959    0.936639    3.359505    -2.682589    1.059637    -3.149080    32.792618    -3.722352    3.002704    4.855313    -4.090927    15.496007    0.987043    -12.378994    -5.860848    2.339102    -8.670162    2.613900    -8.034346    20.539547    2.758012    -8.622496    -5.011436    -15.808071    1.941649    -8.915162    6.900316    2.819499    25.409437    1.797834    -0.644265    -15.348984    1.366619    -0.421897    -1.661031    4.377237    4.740971    3.034925    -1.131591    5.673748    7.555714    -7.217031    -5.766256    8.187770    0.000000    0.000000    0.000000    -4.177065    2.856613    -0.003694    2.538856    6.633521    -4.233901    6.520883    -4.455382    -15.681386    0.000000    0.000000    0.000000    
15.900961    99.283005    42.536007    0.395698    -1.224128    89.705910    -0.746577    -6.917298    0.936300    3.365365    -2.702405    1.060832    -3.166249    32.816490    -3.739336    3.046994    4.848691    -4.107576    15.496239    1.012457    -12.401359    -5.857410    2.256722    -8.667217    2.633814    -8.063846    20.507263    2.601139    -8.644217    -4.844388    -15.800531    1.941660    -8.909192    6.915255    2.819496    25.392315    1.796247    -0.640349    -15.330969    1.374434    -0.418717    -1.662508    4.377416    4.739614    3.030810    -1.131045    5.680866    7.533792    -7.216843    -5.775237    8.206179    0.000000    0.000000    0.000000    -4.176576    2.848903    0.006784    2.540406    6.648071    -4.254985    6.517751    -4.469282    -15.669276    0.000000    0.000000    0.000000    
15.906043    99.282898    42.535393    0.392464    -1.226714    89.700729    -0.742066    -6.926313    0.935218    3.353480    -2.701479    1.059239    -3.169209    32.787838    -3.738497    3.055644    4.903003    -4.106808    15.491657    0.986436    -12.410708    -5.857265    2.226721    -8.650097    2.594569    -8.036840    20.479031    2.477616    -8.605280    -4.885057    -15.808290    1.934488    -8.904627    6.955047    2.817467    25.391088    1.795836    -0.635994    -15.325885    1.344826    -0.413999    -1.669900    4.375734    4.742094    3.039439    -1.124406    5.679076    7.502412    -7.215135    -5.784143    8.231728    0.000000    0.000000    0.000000    -4.175054    2.839423    -0.013013    2.537230    6.666856    -4.217621    6.515178    -4.473891    -15.671621    0.000000    0.000000    0.000000    
